# xmcd
#
# Track frame offsets: 
#        150
#        14519
#        24287
#        38627
#        50854
#        71877
#        84312
#        98900
#        116520
#        129852
#        147996
#        158475
#        171622
#        192764
#
# Disc length: 2734 seconds
#
# Revision: 0
# Processed by: cddbd v1.5.2PL0 Copyright (c) Steve Scherf et al.
# Submitted via: ExactAudioCopy v0.95b3
#
DISCID=b90aac0e
DTITLE=Townes van Zandt - Pancho and Lefty [CD2)
DYEAR=2006
DGENRE=Blues
TTITLE0=To Live is to Fly
TTITLE1=Blue Ridge Mountains
TTITLE2=White Freightliner Blues
TTITLE3=Kathleen
TTITLE4=Brand New Companion
TTITLE5=Nothin'
TTITLE6=Turnstyled Junkpiled
TTITLE7=Delta Momma Blues
TTITLE8=All Your Young Servants
TTITLE9=She Came and She Touched Me
TTITLE10=Mr Mudd And Mr Gold
TTITLE11=German Mustard
TTITLE12=Quicksilver Daydreams Of Maria
TTITLE13=I'll Be Here in the Morning
EXTD=
EXTT0=
EXTT1=
EXTT2=
EXTT3=
EXTT4=
EXTT5=
EXTT6=
EXTT7=
EXTT8=
EXTT9=
EXTT10=
EXTT11=
EXTT12=
EXTT13=
PLAYORDER=
